<mxfile host="app.diagrams.net" modified="2023-09-22T17:47:49.484Z" agent="Mozilla/5.0 (Windows NT 10.0; Win64; x64) AppleWebKit/537.36 (KHTML, like Gecko) Chrome/116.0.0.0 Safari/537.36" etag="lcd4nkOwsUK29oa3gaXb" version="21.7.5" type="github">
  <diagram id="prtHgNgQTEPvFCAcTncT" name="Page-1">
    <mxGraphModel dx="1960" dy="1148" grid="1" gridSize="10" guides="1" tooltips="1" connect="1" arrows="1" fold="1" page="1" pageScale="1" pageWidth="827" pageHeight="1169" math="0" shadow="0">
      <root>
        <mxCell id="0" />
        <mxCell id="1" parent="0" />
        <mxCell id="dnM9Aqhk3RCEN801GPX0-33" style="edgeStyle=none;shape=connector;rounded=0;orthogonalLoop=1;jettySize=auto;html=1;exitX=0.5;exitY=0;exitDx=0;exitDy=0;entryX=0.5;entryY=1;entryDx=0;entryDy=0;labelBackgroundColor=default;strokeColor=default;fontFamily=Helvetica;fontSize=11;fontColor=default;endArrow=classic;endFill=1;dashed=1;fontStyle=1" edge="1" parent="1" source="dnM9Aqhk3RCEN801GPX0-2" target="dnM9Aqhk3RCEN801GPX0-5">
          <mxGeometry relative="1" as="geometry" />
        </mxCell>
        <mxCell id="dnM9Aqhk3RCEN801GPX0-34" style="edgeStyle=none;shape=connector;rounded=0;orthogonalLoop=1;jettySize=auto;html=1;exitX=0;exitY=0;exitDx=0;exitDy=0;entryX=0.5;entryY=1;entryDx=0;entryDy=0;labelBackgroundColor=default;strokeColor=default;fontFamily=Helvetica;fontSize=11;fontColor=default;endArrow=classic;endFill=1;dashed=1;fontStyle=1" edge="1" parent="1" source="dnM9Aqhk3RCEN801GPX0-2" target="dnM9Aqhk3RCEN801GPX0-22">
          <mxGeometry relative="1" as="geometry" />
        </mxCell>
        <mxCell id="dnM9Aqhk3RCEN801GPX0-35" style="edgeStyle=none;shape=connector;rounded=0;orthogonalLoop=1;jettySize=auto;html=1;exitX=0;exitY=1;exitDx=0;exitDy=0;entryX=1;entryY=0;entryDx=0;entryDy=0;labelBackgroundColor=default;strokeColor=default;fontFamily=Helvetica;fontSize=11;fontColor=default;endArrow=classic;endFill=1;dashed=1;fontStyle=1" edge="1" parent="1" source="dnM9Aqhk3RCEN801GPX0-2" target="dnM9Aqhk3RCEN801GPX0-9">
          <mxGeometry relative="1" as="geometry" />
        </mxCell>
        <mxCell id="dnM9Aqhk3RCEN801GPX0-36" style="edgeStyle=none;shape=connector;rounded=0;orthogonalLoop=1;jettySize=auto;html=1;exitX=0.5;exitY=1;exitDx=0;exitDy=0;entryX=1;entryY=0;entryDx=0;entryDy=0;labelBackgroundColor=default;strokeColor=default;fontFamily=Helvetica;fontSize=11;fontColor=default;endArrow=classic;endFill=1;dashed=1;fontStyle=1" edge="1" parent="1" source="dnM9Aqhk3RCEN801GPX0-2" target="dnM9Aqhk3RCEN801GPX0-8">
          <mxGeometry relative="1" as="geometry" />
        </mxCell>
        <mxCell id="dnM9Aqhk3RCEN801GPX0-2" value="Log in&lt;br&gt;" style="ellipse;whiteSpace=wrap;html=1;fontStyle=1;strokeWidth=2;" vertex="1" parent="1">
          <mxGeometry x="310" y="450" width="120" height="80" as="geometry" />
        </mxCell>
        <mxCell id="dnM9Aqhk3RCEN801GPX0-12" style="rounded=0;orthogonalLoop=1;jettySize=auto;html=1;exitX=0.5;exitY=0;exitDx=0;exitDy=0;entryX=1;entryY=0.5;entryDx=0;entryDy=0;dashed=1;fontStyle=1" edge="1" parent="1" source="dnM9Aqhk3RCEN801GPX0-3" target="dnM9Aqhk3RCEN801GPX0-2">
          <mxGeometry relative="1" as="geometry" />
        </mxCell>
        <mxCell id="dnM9Aqhk3RCEN801GPX0-3" value="Forgot&lt;br&gt;Password&lt;br&gt;&amp;nbsp;" style="ellipse;whiteSpace=wrap;html=1;fontStyle=1;strokeWidth=2;" vertex="1" parent="1">
          <mxGeometry x="430" y="595" width="120" height="80" as="geometry" />
        </mxCell>
        <mxCell id="dnM9Aqhk3RCEN801GPX0-6" value="Anonymous&lt;br&gt;Question&lt;br&gt;Posting" style="ellipse;whiteSpace=wrap;html=1;fontStyle=1;strokeWidth=2;" vertex="1" parent="1">
          <mxGeometry x="190" y="140" width="120" height="80" as="geometry" />
        </mxCell>
        <mxCell id="dnM9Aqhk3RCEN801GPX0-48" style="edgeStyle=none;shape=connector;rounded=0;orthogonalLoop=1;jettySize=auto;html=1;exitX=1;exitY=1;exitDx=0;exitDy=0;entryX=0;entryY=0.3333333333333333;entryDx=0;entryDy=0;entryPerimeter=0;labelBackgroundColor=default;strokeColor=default;fontFamily=Helvetica;fontSize=11;fontColor=default;endArrow=none;endFill=0;fontStyle=1" edge="1" parent="1" source="dnM9Aqhk3RCEN801GPX0-7" target="dnM9Aqhk3RCEN801GPX0-46">
          <mxGeometry relative="1" as="geometry" />
        </mxCell>
        <mxCell id="dnM9Aqhk3RCEN801GPX0-8" value="Expert&lt;br&gt;Answers" style="ellipse;whiteSpace=wrap;html=1;fontStyle=1;strokeWidth=2;" vertex="1" parent="1">
          <mxGeometry x="190" y="660" width="120" height="80" as="geometry" />
        </mxCell>
        <mxCell id="dnM9Aqhk3RCEN801GPX0-9" value="Crisis&lt;br&gt;Support" style="ellipse;whiteSpace=wrap;html=1;fontStyle=1;strokeWidth=2;" vertex="1" parent="1">
          <mxGeometry x="170" y="560" width="120" height="80" as="geometry" />
        </mxCell>
        <mxCell id="dnM9Aqhk3RCEN801GPX0-17" style="rounded=0;orthogonalLoop=1;jettySize=auto;html=1;exitX=1;exitY=0.3333333333333333;exitDx=0;exitDy=0;exitPerimeter=0;entryX=0;entryY=0.5;entryDx=0;entryDy=0;endArrow=none;endFill=0;fontStyle=1" edge="1" parent="1" source="dnM9Aqhk3RCEN801GPX0-10" target="dnM9Aqhk3RCEN801GPX0-6">
          <mxGeometry relative="1" as="geometry" />
        </mxCell>
        <mxCell id="dnM9Aqhk3RCEN801GPX0-18" style="edgeStyle=none;shape=connector;rounded=0;orthogonalLoop=1;jettySize=auto;html=1;exitX=1;exitY=0.3333333333333333;exitDx=0;exitDy=0;exitPerimeter=0;entryX=0;entryY=0.5;entryDx=0;entryDy=0;labelBackgroundColor=default;strokeColor=default;fontFamily=Helvetica;fontSize=11;fontColor=default;endArrow=none;endFill=0;fontStyle=1" edge="1" parent="1" source="dnM9Aqhk3RCEN801GPX0-10" target="dnM9Aqhk3RCEN801GPX0-5">
          <mxGeometry relative="1" as="geometry" />
        </mxCell>
        <mxCell id="dnM9Aqhk3RCEN801GPX0-19" style="edgeStyle=none;shape=connector;rounded=0;orthogonalLoop=1;jettySize=auto;html=1;exitX=1;exitY=0.3333333333333333;exitDx=0;exitDy=0;exitPerimeter=0;entryX=0;entryY=0.5;entryDx=0;entryDy=0;labelBackgroundColor=default;strokeColor=default;fontFamily=Helvetica;fontSize=11;fontColor=default;endArrow=none;endFill=0;fontStyle=1" edge="1" parent="1" source="dnM9Aqhk3RCEN801GPX0-10" target="dnM9Aqhk3RCEN801GPX0-2">
          <mxGeometry relative="1" as="geometry" />
        </mxCell>
        <mxCell id="dnM9Aqhk3RCEN801GPX0-20" style="edgeStyle=none;shape=connector;rounded=0;orthogonalLoop=1;jettySize=auto;html=1;exitX=1;exitY=0.3333333333333333;exitDx=0;exitDy=0;exitPerimeter=0;entryX=0;entryY=0.5;entryDx=0;entryDy=0;labelBackgroundColor=default;strokeColor=default;fontFamily=Helvetica;fontSize=11;fontColor=default;endArrow=none;endFill=0;fontStyle=1" edge="1" parent="1" source="dnM9Aqhk3RCEN801GPX0-10" target="dnM9Aqhk3RCEN801GPX0-9">
          <mxGeometry relative="1" as="geometry" />
        </mxCell>
        <mxCell id="dnM9Aqhk3RCEN801GPX0-31" style="edgeStyle=none;shape=connector;rounded=0;orthogonalLoop=1;jettySize=auto;html=1;exitX=1;exitY=0.3333333333333333;exitDx=0;exitDy=0;exitPerimeter=0;entryX=0;entryY=0.5;entryDx=0;entryDy=0;labelBackgroundColor=default;strokeColor=default;fontFamily=Helvetica;fontSize=11;fontColor=default;endArrow=none;endFill=0;fontStyle=1" edge="1" parent="1" source="dnM9Aqhk3RCEN801GPX0-10" target="dnM9Aqhk3RCEN801GPX0-22">
          <mxGeometry relative="1" as="geometry" />
        </mxCell>
        <mxCell id="dnM9Aqhk3RCEN801GPX0-10" value="Member" style="shape=umlActor;verticalLabelPosition=bottom;verticalAlign=top;html=1;outlineConnect=0;fontStyle=1;strokeWidth=2;" vertex="1" parent="1">
          <mxGeometry x="70" y="320" width="30" height="60" as="geometry" />
        </mxCell>
        <mxCell id="dnM9Aqhk3RCEN801GPX0-13" value="&amp;lt;&amp;lt;extends&amp;gt;&amp;gt;" style="text;html=1;align=center;verticalAlign=middle;resizable=0;points=[];autosize=1;strokeColor=none;fillColor=none;rotation=60;fontStyle=1" vertex="1" parent="1">
          <mxGeometry x="415" y="520" width="100" height="30" as="geometry" />
        </mxCell>
        <mxCell id="dnM9Aqhk3RCEN801GPX0-28" style="edgeStyle=none;shape=connector;rounded=0;orthogonalLoop=1;jettySize=auto;html=1;exitX=0.75;exitY=0.1;exitDx=0;exitDy=0;exitPerimeter=0;entryX=0;entryY=0.3333333333333333;entryDx=0;entryDy=0;entryPerimeter=0;labelBackgroundColor=default;strokeColor=default;fontFamily=Helvetica;fontSize=11;fontColor=default;endArrow=none;endFill=0;fontStyle=1" edge="1" parent="1" target="dnM9Aqhk3RCEN801GPX0-10">
          <mxGeometry relative="1" as="geometry">
            <mxPoint x="32.5" y="405.9999999999999" as="sourcePoint" />
          </mxGeometry>
        </mxCell>
        <mxCell id="dnM9Aqhk3RCEN801GPX0-29" style="edgeStyle=none;shape=connector;rounded=0;orthogonalLoop=1;jettySize=auto;html=1;exitX=1;exitY=1;exitDx=0;exitDy=0;exitPerimeter=0;entryX=0;entryY=0.3333333333333333;entryDx=0;entryDy=0;entryPerimeter=0;labelBackgroundColor=default;strokeColor=default;fontFamily=Helvetica;fontSize=11;fontColor=default;endArrow=none;endFill=0;fontStyle=1" edge="1" parent="1" target="dnM9Aqhk3RCEN801GPX0-26">
          <mxGeometry relative="1" as="geometry">
            <mxPoint x="40" y="460" as="sourcePoint" />
          </mxGeometry>
        </mxCell>
        <mxCell id="dnM9Aqhk3RCEN801GPX0-30" style="edgeStyle=none;shape=connector;rounded=0;orthogonalLoop=1;jettySize=auto;html=1;exitX=1;exitY=1;exitDx=0;exitDy=0;exitPerimeter=0;entryX=0;entryY=0.5;entryDx=0;entryDy=0;labelBackgroundColor=default;strokeColor=default;fontFamily=Helvetica;fontSize=11;fontColor=default;endArrow=none;endFill=0;fontStyle=1" edge="1" parent="1" source="dnM9Aqhk3RCEN801GPX0-26" target="dnM9Aqhk3RCEN801GPX0-8">
          <mxGeometry relative="1" as="geometry" />
        </mxCell>
        <mxCell id="dnM9Aqhk3RCEN801GPX0-26" value="Mental&lt;br&gt;health&lt;br&gt;Professional" style="shape=umlActor;verticalLabelPosition=bottom;verticalAlign=top;html=1;outlineConnect=0;fontStyle=1;strokeWidth=2;" vertex="1" parent="1">
          <mxGeometry x="70" y="460" width="30" height="60" as="geometry" />
        </mxCell>
        <mxCell id="dnM9Aqhk3RCEN801GPX0-37" value="&amp;lt;&amp;lt;includes&amp;gt;&amp;gt;" style="text;html=1;align=center;verticalAlign=middle;resizable=0;points=[];autosize=1;strokeColor=none;fillColor=none;rotation=-55;fontStyle=1" vertex="1" parent="1">
          <mxGeometry x="275" y="620" width="100" height="30" as="geometry" />
        </mxCell>
        <mxCell id="dnM9Aqhk3RCEN801GPX0-38" value="&amp;lt;&amp;lt;includes&amp;gt;&amp;gt;" style="text;html=1;align=center;verticalAlign=middle;resizable=0;points=[];autosize=1;strokeColor=none;fillColor=none;rotation=-40;fontStyle=1" vertex="1" parent="1">
          <mxGeometry x="240" y="520" width="100" height="30" as="geometry" />
        </mxCell>
        <mxCell id="dnM9Aqhk3RCEN801GPX0-46" value="Admin" style="shape=umlActor;verticalLabelPosition=bottom;verticalAlign=top;html=1;outlineConnect=0;fontStyle=1;strokeWidth=2;" vertex="1" parent="1">
          <mxGeometry x="680" y="320" width="30" height="60" as="geometry" />
        </mxCell>
        <mxCell id="dnM9Aqhk3RCEN801GPX0-50" value="User" style="shape=umlActor;verticalLabelPosition=bottom;verticalAlign=top;html=1;outlineConnect=0;fontStyle=1;strokeWidth=2;" vertex="1" parent="1">
          <mxGeometry x="10" y="400" width="30" height="60" as="geometry" />
        </mxCell>
        <mxCell id="dnM9Aqhk3RCEN801GPX0-53" value="Mind Bridge" style="swimlane;whiteSpace=wrap;html=1;fontFamily=Helvetica;fontSize=11;fontColor=default;fontStyle=1" vertex="1" parent="1">
          <mxGeometry x="130" y="110" width="490" height="660" as="geometry" />
        </mxCell>
        <mxCell id="dnM9Aqhk3RCEN801GPX0-56" style="edgeStyle=none;shape=connector;rounded=0;orthogonalLoop=1;jettySize=auto;html=1;exitX=0;exitY=0.5;exitDx=0;exitDy=0;entryX=1;entryY=0.5;entryDx=0;entryDy=0;labelBackgroundColor=default;strokeColor=default;fontFamily=Helvetica;fontSize=11;fontColor=default;endArrow=classic;endFill=1;dashed=1;" edge="1" parent="dnM9Aqhk3RCEN801GPX0-53" source="dnM9Aqhk3RCEN801GPX0-54" target="dnM9Aqhk3RCEN801GPX0-22">
          <mxGeometry relative="1" as="geometry" />
        </mxCell>
        <mxCell id="dnM9Aqhk3RCEN801GPX0-54" value="Post a message" style="ellipse;whiteSpace=wrap;html=1;fontStyle=1;strokeWidth=2;" vertex="1" parent="dnM9Aqhk3RCEN801GPX0-53">
          <mxGeometry x="290" y="230" width="120" height="80" as="geometry" />
        </mxCell>
        <mxCell id="dnM9Aqhk3RCEN801GPX0-7" value="Write&lt;br&gt;Article/Blog" style="ellipse;whiteSpace=wrap;html=1;fontStyle=1;strokeWidth=2;" vertex="1" parent="dnM9Aqhk3RCEN801GPX0-53">
          <mxGeometry x="360" y="110" width="120" height="80" as="geometry" />
        </mxCell>
        <mxCell id="dnM9Aqhk3RCEN801GPX0-5" value="Article/&lt;br&gt;Blogs" style="ellipse;whiteSpace=wrap;html=1;fontStyle=1;strokeWidth=2;" vertex="1" parent="dnM9Aqhk3RCEN801GPX0-53">
          <mxGeometry x="210" y="80" width="120" height="80" as="geometry" />
        </mxCell>
        <mxCell id="dnM9Aqhk3RCEN801GPX0-47" style="edgeStyle=none;shape=connector;rounded=0;orthogonalLoop=1;jettySize=auto;html=1;exitX=0;exitY=0.5;exitDx=0;exitDy=0;entryX=1;entryY=0.5;entryDx=0;entryDy=0;labelBackgroundColor=default;strokeColor=default;fontFamily=Helvetica;fontSize=11;fontColor=default;endArrow=none;endFill=0;fontStyle=1" edge="1" parent="dnM9Aqhk3RCEN801GPX0-53" source="dnM9Aqhk3RCEN801GPX0-7" target="dnM9Aqhk3RCEN801GPX0-5">
          <mxGeometry relative="1" as="geometry" />
        </mxCell>
        <mxCell id="dnM9Aqhk3RCEN801GPX0-22" value="Community&lt;br&gt;Interaction" style="ellipse;whiteSpace=wrap;html=1;fontStyle=1;strokeWidth=2;" vertex="1" parent="dnM9Aqhk3RCEN801GPX0-53">
          <mxGeometry x="30" y="190" width="120" height="80" as="geometry" />
        </mxCell>
        <mxCell id="dnM9Aqhk3RCEN801GPX0-45" value="&amp;lt;&amp;lt;extends&amp;gt;&amp;gt;" style="text;html=1;align=center;verticalAlign=middle;resizable=0;points=[];autosize=1;strokeColor=none;fillColor=none;rotation=-75;fontStyle=1" vertex="1" parent="dnM9Aqhk3RCEN801GPX0-53">
          <mxGeometry x="195" y="190" width="100" height="30" as="geometry" />
        </mxCell>
        <mxCell id="dnM9Aqhk3RCEN801GPX0-40" value="&amp;lt;&amp;lt;includes&amp;gt;&amp;gt;" style="text;html=1;align=center;verticalAlign=middle;resizable=0;points=[];autosize=1;strokeColor=none;fillColor=none;rotation=35;fontStyle=1" vertex="1" parent="dnM9Aqhk3RCEN801GPX0-53">
          <mxGeometry x="110" y="290" width="100" height="30" as="geometry" />
        </mxCell>
        <mxCell id="dnM9Aqhk3RCEN801GPX0-57" value="&amp;lt;&amp;lt;extends&amp;gt;&amp;gt;" style="text;html=1;align=center;verticalAlign=middle;resizable=0;points=[];autosize=1;strokeColor=none;fillColor=none;rotation=16;fontStyle=1" vertex="1" parent="dnM9Aqhk3RCEN801GPX0-53">
          <mxGeometry x="150" y="220" width="100" height="30" as="geometry" />
        </mxCell>
      </root>
    </mxGraphModel>
  </diagram>
</mxfile>
